<svg id="Outline" xmlns="http://www.w3.org/2000/svg" width="40" height="40" viewBox="0 0 40 40">
  <defs>
    <style>
      .cls-1 {
        fill: none;
      }
      path {
        fill: white;
      }
    </style>
  </defs>
  <g>
    <path d="M21.89062,4.00732a.99986.99986,0,0,0-.93847,1.5669A11.0393,11.0393,0,0,1,5.57422,20.95166a1.00053,1.00053,0,0,0-1.56738.93945A16.05579,16.05579,0,1,0,21.89062,4.00732ZM19.93848,34A14.06332,14.06332,0,0,1,6.4082,23.73682a12.9384,12.9384,0,0,0,5.49805,1.21826A13.04364,13.04364,0,0,0,23.7373,6.4082,14.05675,14.05675,0,0,1,19.93848,34Z"/>
    <rect class="cls-1" width="40" height="40"/>
  </g>
</svg>
